<?xml version="1.0" encoding="UTF-8" standalone="no"?>
<!-- Created with Inkscape (http://www.inkscape.org/) -->

<svg
   version="1.1"
   id="svg2"
   width="2071.8132"
   height="1026.6667"
   viewBox="0 0 2071.8132 1026.6667"
   sodipodi:docname="2 crore logo final.ai"
   xmlns:inkscape="http://www.inkscape.org/namespaces/inkscape"
   xmlns:sodipodi="http://sodipodi.sourceforge.net/DTD/sodipodi-0.dtd"
   xmlns="http://www.w3.org/2000/svg"
   xmlns:svg="http://www.w3.org/2000/svg">
  <defs
     id="defs6">
    <linearGradient
       x1="0"
       y1="0"
       x2="1"
       y2="0"
       gradientUnits="userSpaceOnUse"
       gradientTransform="matrix(720.49854,0,0,-720.49854,604.88013,375.5679)"
       spreadMethod="pad"
       id="linearGradient26">
      <stop
         style="stop-opacity:1;stop-color:#1737aa"
         offset="0"
         id="stop22" />
      <stop
         style="stop-opacity:1;stop-color:#2e51ff"
         offset="1"
         id="stop24" />
    </linearGradient>
    <linearGradient
       x1="0"
       y1="0"
       x2="1"
       y2="0"
       gradientUnits="userSpaceOnUse"
       gradientTransform="matrix(502.95645,0,0,-502.95645,592.71625,171.80112)"
       spreadMethod="pad"
       id="linearGradient46">
      <stop
         style="stop-opacity:1;stop-color:#1737aa"
         offset="0"
         id="stop42" />
      <stop
         style="stop-opacity:1;stop-color:#2e51ff"
         offset="1"
         id="stop44" />
    </linearGradient>
    <clipPath
       clipPathUnits="userSpaceOnUse"
       id="clipPath56">
      <path
         d="M 0,770 H 1553.857 V 0 H 0 Z"
         id="path54" />
    </clipPath>
    <linearGradient
       x1="0"
       y1="0"
       x2="1"
       y2="0"
       gradientUnits="userSpaceOnUse"
       gradientTransform="matrix(574.62476,0,0,-574.62476,632.24432,577.53589)"
       spreadMethod="pad"
       id="linearGradient112">
      <stop
         style="stop-opacity:1;stop-color:#ff4200"
         offset="0"
         id="stop106" />
      <stop
         style="stop-opacity:1;stop-color:#ff4200"
         offset="0"
         id="stop108" />
      <stop
         style="stop-opacity:1;stop-color:#ff7300"
         offset="1"
         id="stop110" />
    </linearGradient>
    <linearGradient
       x1="0"
       y1="0"
       x2="1"
       y2="0"
       gradientUnits="userSpaceOnUse"
       gradientTransform="matrix(86.868172,0,0,-86.868172,1350.051,346.7897)"
       spreadMethod="pad"
       id="linearGradient132">
      <stop
         style="stop-opacity:1;stop-color:#1737aa"
         offset="0"
         id="stop128" />
      <stop
         style="stop-opacity:1;stop-color:#2e51ff"
         offset="1"
         id="stop130" />
    </linearGradient>
    <linearGradient
       x1="0"
       y1="0"
       x2="1"
       y2="0"
       gradientUnits="userSpaceOnUse"
       gradientTransform="matrix(398.00696,0,0,-398.00696,133.4518,411.06311)"
       spreadMethod="pad"
       id="linearGradient154">
      <stop
         style="stop-opacity:1;stop-color:#ff4200"
         offset="0"
         id="stop148" />
      <stop
         style="stop-opacity:1;stop-color:#ff4200"
         offset="0"
         id="stop150" />
      <stop
         style="stop-opacity:1;stop-color:#ff7300"
         offset="1"
         id="stop152" />
    </linearGradient>
    <clipPath
       clipPathUnits="userSpaceOnUse"
       id="clipPath164">
      <path
         d="M 0,770 H 1553.857 V 0 H 0 Z"
         id="path162" />
    </clipPath>
  </defs>
  <sodipodi:namedview
     id="namedview4"
     pagecolor="#ffffff"
     bordercolor="#000000"
     borderopacity="0.25"
     inkscape:showpageshadow="2"
     inkscape:pageopacity="0.0"
     inkscape:pagecheckerboard="0"
     inkscape:deskcolor="#d1d1d1" />
  <g
     id="g8"
     inkscape:groupmode="layer"
     inkscape:label="2 crore logo final"
     transform="matrix(1.3333333,0,0,-1.3333333,0,1026.6667)">
    <g
       id="g10">
      <g
         id="g12">
        <g
           id="g18">
          <g
             id="g20">
            <path
               d="M 659.153,475.005 C 646.49,468.94 636.25,460.347 628.437,449.234 v 0 c -7.822,-11.118 -12.609,-23.952 -14.376,-38.504 v 0 L 605.56,340.7 c -1.766,-14.552 -0.095,-27.39 5.028,-38.503 v 0 c 5.116,-11.12 13.263,-19.757 24.442,-25.921 v 0 c 11.172,-6.164 24.647,-9.242 40.415,-9.242 v 0 c 15.556,0 29.61,2.921 42.143,8.789 v 0 c 12.533,5.862 22.735,14.145 30.605,24.857 v 0 c 7.865,10.713 12.65,23.046 14.343,36.988 v 0 c 0.098,0.808 -0.171,1.516 -0.807,2.12 v 0 c -0.634,0.611 -1.451,0.912 -2.462,0.912 v 0 l -35.287,1.517 c -2.428,0 -3.772,-1.116 -4.041,-3.335 v 0 c -1.275,-10.509 -5.595,-19.002 -12.944,-25.468 v 0 c -7.356,-6.472 -16.393,-9.701 -27.098,-9.701 v 0 c -10.916,0 -19.267,3.229 -25.052,9.701 v 0 c -5.786,6.466 -8.037,14.959 -6.761,25.468 v 0 l 8.868,73.063 c 1.301,10.712 5.625,19.298 12.981,25.77 v 0 c 7.356,6.466 16.492,9.701 27.407,9.701 v 0 c 10.706,0 18.957,-3.235 24.743,-9.701 v 0 c 5.779,-6.472 8.025,-15.058 6.724,-25.77 v 0 c -0.27,-2.225 0.6,-3.334 2.628,-3.334 v 0 h 0.604 l 35.729,2.119 c 2.472,0.408 3.82,1.517 4.041,3.335 v 0 c 1.693,13.948 -0.105,26.229 -5.381,36.837 v 0 c -5.282,10.614 -13.484,18.799 -24.608,24.555 v 0 c -11.122,5.763 -24.471,8.645 -40.027,8.645 v 0 c -15.766,0 -29.984,-3.033 -42.64,-9.097 m 560.133,-59.725 c -12.655,-8.488 -22.181,-19.909 -28.57,-34.258 v 0 c -4.056,-8.487 -6.762,-18.293 -8.112,-29.406 v 0 c -1.987,-16.371 -1.474,-29.609 1.546,-39.717 v 0 c 3.534,-14.146 10.836,-25.16 21.91,-33.043 v 0 c 11.062,-7.884 25.287,-11.822 42.675,-11.822 v 0 c 12.53,0 24.325,2.271 35.386,6.82 v 0 c 11.061,4.548 20.432,10.962 28.107,19.252 v 0 c 0.954,1.208 1.459,2.015 1.508,2.422 v 0 c 0.098,0.807 -0.298,1.713 -1.184,2.73 v 0 l -19.213,21.524 c -0.716,0.807 -1.368,1.214 -1.979,1.214 v 0 c -1.011,0 -1.998,-0.61 -2.945,-1.818 v 0 c -8.735,-10.312 -19.58,-15.57 -32.534,-15.767 v 0 c -16.173,0 -26.199,5.658 -30.077,16.975 v 0 c -1.13,4.042 -1.748,8.086 -1.862,12.129 v 0 c -0.284,1.011 0.184,1.516 1.392,1.516 v 0 h 93.68 c 2.429,0 3.889,1.214 4.387,3.637 v 0 c 1.553,9.498 2.195,18.09 1.913,25.77 v 0 c -0.247,19.599 -5.775,35.267 -16.581,46.991 v 0 c -10.805,11.723 -26.313,17.584 -46.523,17.584 v 0 c -15.97,0 -30.277,-4.246 -42.924,-12.733 m 8.102,-51.842 c 1.076,3.839 2.171,7.076 3.304,9.701 v 0 c 5.484,11.927 14.597,17.887 27.33,17.887 v 0 c 6.669,0 12.079,-1.667 16.223,-5.002 v 0 c 4.144,-3.334 6.756,-8.034 7.839,-14.099 v 0 c 0.025,0.203 0.18,-2.625 0.486,-8.487 v 0 c 0.277,-1.011 -0.184,-1.516 -1.398,-1.516 v 0 h -52.452 c -1.011,0 -1.456,0.505 -1.332,1.516 m -289.336,51.539 c -13.154,-8.487 -22.965,-20.21 -29.428,-35.169 v 0 c -3.989,-9.498 -6.701,-20.21 -8.149,-32.136 v 0 c -1.348,-11.113 -1.189,-21.426 0.494,-30.923 v 0 c 2.58,-15.36 9.397,-27.49 20.442,-36.377 v 0 c 11.049,-8.901 25.063,-13.338 42.037,-13.338 v 0 c 16.981,0 32.026,4.49 45.143,13.489 v 0 c 13.117,8.993 22.857,21.372 29.214,37.138 v 0 c 3.983,9.498 6.64,19.705 7.964,30.621 v 0 c 1.349,11.112 1.016,21.72 -0.987,31.829 v 0 c -3.035,14.958 -9.909,26.629 -20.606,35.018 v 0 c -10.707,8.381 -24.348,12.582 -40.922,12.582 v 0 c -16.974,0 -32.042,-4.247 -45.202,-12.734 M 951.21,309.778 c -4.262,4.043 -6.975,9.596 -8.138,16.673 v 0 c -0.804,5.053 -0.647,12.129 0.457,21.221 v 0 c 1.152,9.497 2.831,16.679 5.035,21.529 v 0 c 2.855,6.866 6.793,12.222 11.809,16.068 v 0 c 5.007,3.833 10.952,5.757 17.824,5.757 v 0 c 6.668,0 12.094,-1.924 16.282,-5.757 v 0 c 4.181,-3.846 6.964,-9.202 8.355,-16.068 v 0 c 0.903,-5.868 0.84,-13.036 -0.192,-21.529 v 0 c -0.931,-7.681 -2.598,-14.757 -4.997,-21.221 v 0 c -2.881,-7.077 -6.89,-12.63 -12.027,-16.673 v 0 c -5.145,-4.044 -11.048,-6.065 -17.717,-6.065 v 0 c -6.873,0 -12.437,2.021 -16.691,6.065 m 173.803,99.437 c -0.252,-0.407 -0.566,-0.506 -0.942,-0.303 v 0 c -0.389,0.204 -0.536,0.61 -0.462,1.214 v 0 l 1.397,11.52 c 0.124,1.011 -0.128,1.864 -0.743,2.58 v 0 c -0.63,0.703 -1.44,1.056 -2.452,1.056 v 0 h -35.471 c -1.01,0 -1.913,-0.353 -2.708,-1.056 v 0 c -0.795,-0.716 -1.247,-1.569 -1.369,-2.58 v 0 L 1064.23,273.092 c -0.122,-1.01 0.121,-1.871 0.744,-2.573 v 0 c 0.623,-0.715 1.44,-1.063 2.451,-1.063 v 0 h 35.472 c 1.011,0 1.906,0.348 2.708,1.063 v 0 c 0.787,0.702 1.246,1.563 1.37,2.573 v 0 l 10.046,82.764 c 0.957,7.884 4.25,14.198 9.882,18.951 v 0 c 5.623,4.745 12.119,7.43 19.465,8.034 v 0 c 2.878,0.4 5.128,0.604 6.743,0.604 v 0 c 4.042,0 7.519,-0.506 10.43,-1.51 v 0 c 2.502,-1.017 4.006,-0.309 4.504,2.12 v 0 l 10.562,34.559 c 0.67,2.225 0.251,3.742 -1.273,4.549 v 0 c -3.897,2.829 -9.488,4.246 -16.761,4.246 v 0 c -13.948,0 -25.803,-6.064 -35.56,-18.194 m -281.039,0 c -0.253,-0.407 -0.566,-0.506 -0.942,-0.303 v 0 c -0.389,0.204 -0.537,0.61 -0.463,1.214 v 0 l 1.398,11.52 c 0.123,1.011 -0.128,1.864 -0.743,2.58 v 0 c -0.63,0.703 -1.44,1.056 -2.452,1.056 v 0 h -35.471 c -1.011,0 -1.914,-0.353 -2.708,-1.056 v 0 c -0.796,-0.716 -1.247,-1.569 -1.37,-2.58 v 0 L 783.191,273.092 c -0.123,-1.01 0.12,-1.871 0.744,-2.573 v 0 c 0.622,-0.715 1.44,-1.063 2.451,-1.063 v 0 h 35.471 c 1.011,0 1.907,0.348 2.709,1.063 v 0 c 0.787,0.702 1.246,1.563 1.369,2.573 v 0 l 10.046,82.764 c 0.957,7.884 4.251,14.198 9.882,18.951 v 0 c 5.623,4.745 12.12,7.43 19.465,8.034 v 0 c 2.879,0.4 5.128,0.604 6.742,0.604 v 0 c 4.044,0 7.521,-0.506 10.431,-1.51 v 0 c 2.502,-1.017 4.006,-0.309 4.505,2.12 v 0 l 10.561,34.559 c 0.671,2.225 0.251,3.742 -1.272,4.549 v 0 c -3.897,2.829 -9.488,4.246 -16.761,4.246 v 0 c -13.948,0 -25.804,-6.064 -35.56,-18.194"
               style="fill:url(#linearGradient26);stroke:none"
               id="path28" />
          </g>
        </g>
      </g>
    </g>
    <g
       id="g30">
      <g
         id="g32">
        <g
           id="g38">
          <g
             id="g40">
            <path
               d="m 827.089,227.219 c -2.626,-2.346 -4.166,-5.378 -4.62,-9.104 v 0 c -0.436,-3.62 0.397,-6.626 2.501,-9.025 v 0 c 2.102,-2.393 4.965,-3.593 8.587,-3.593 v 0 c 3.619,0 6.772,1.2 9.459,3.593 v 0 c 2.685,2.399 4.252,5.405 4.689,9.025 v 0 c 0.453,3.726 -0.351,6.758 -2.41,9.104 v 0 c -2.06,2.34 -4.949,3.513 -8.675,3.513 v 0 c -3.729,0 -6.905,-1.173 -9.531,-3.513 m -40.715,-1.279 c -0.54,0 -1.01,-0.187 -1.43,-0.56 v 0 c -0.416,-0.374 -0.66,-0.826 -0.723,-1.36 v 0 l -4.149,-34.173 c -0.04,-0.32 -0.173,-0.533 -0.397,-0.639 v 0 c -0.226,-0.107 -0.426,0 -0.599,0.319 v 0 c -3.613,5.319 -9.252,7.985 -16.916,7.985 v 0 c -7.776,0 -14.538,-1.992 -20.29,-5.985 v 0 c -5.758,-3.999 -10.271,-9.405 -13.55,-16.217 v 0 c -2.6,-5.638 -4.359,-12.244 -5.276,-19.795 v 0 c -0.889,-7.353 -0.77,-13.791 0.367,-19.323 v 0 c 1.466,-7.245 4.632,-12.937 9.508,-17.097 v 0 c 4.872,-4.152 11.034,-6.225 18.486,-6.225 v 0 c 7.771,0 14.25,2.926 19.432,8.785 v 0 c 0.241,0.213 0.46,0.293 0.67,0.24 v 0 c 0.203,-0.053 0.287,-0.24 0.247,-0.56 v 0 l -0.64,-5.272 c -0.063,-0.534 0.07,-0.986 0.397,-1.353 v 0 c 0.326,-0.373 0.757,-0.56 1.293,-0.56 v 0 h 18.682 c 0.534,0 1.004,0.187 1.427,0.56 v 0 c 0.413,0.367 0.657,0.819 0.72,1.353 v 0 l 13.104,107.957 c 0.066,0.534 -0.067,0.986 -0.39,1.36 v 0 c -0.33,0.373 -0.757,0.56 -1.29,0.56 v 0 z m -38.815,-86.882 c -1.72,4.259 -2.192,9.585 -1.417,15.977 v 0 c 0.867,7.125 2.88,12.77 6.046,16.93 v 0 c 3.062,4.152 7.092,6.225 12.097,6.225 v 0 c 4.683,0 7.999,-2.073 9.942,-6.225 v 0 c 1.853,-4.053 2.346,-9.638 1.483,-16.771 v 0 c -0.83,-6.818 -2.546,-12.19 -5.156,-16.136 v 0 c -3.219,-4.579 -7.222,-6.865 -12.011,-6.865 v 0 c -5.219,0 -8.881,2.286 -10.984,6.865 M 607.985,225.94 c -0.534,0 -1.006,-0.187 -1.423,-0.56 v 0 c -0.416,-0.374 -0.66,-0.826 -0.723,-1.36 v 0 L 592.732,116.063 c -0.064,-0.534 0.069,-0.986 0.396,-1.353 v 0 c 0.323,-0.373 0.757,-0.56 1.29,-0.56 v 0 h 18.686 c 0.529,0 1.003,0.187 1.423,0.56 v 0 c 0.417,0.367 0.66,0.819 0.723,1.353 v 0 l 13.104,107.957 c 0.066,0.534 -0.067,0.986 -0.393,1.36 v 0 c -0.327,0.373 -0.76,0.56 -1.287,0.56 v 0 z m 359.701,-37.692 c -0.134,-0.214 -0.3,-0.267 -0.5,-0.161 v 0 c -0.2,0.108 -0.276,0.321 -0.24,0.64 v 0 l 0.68,5.593 c 0.063,0.526 -0.07,0.979 -0.397,1.353 v 0 c -0.327,0.373 -0.76,0.559 -1.286,0.559 v 0 h -18.689 c -0.533,0 -1.007,-0.186 -1.423,-0.559 v 0 c -0.423,-0.374 -0.66,-0.827 -0.724,-1.353 v 0 l -9.501,-78.257 c -0.063,-0.534 0.064,-0.986 0.397,-1.353 v 0 c 0.323,-0.373 0.756,-0.56 1.289,-0.56 v 0 h 18.686 c 0.53,0 1.004,0.187 1.423,0.56 v 0 c 0.417,0.367 0.661,0.819 0.724,1.353 v 0 l 5.798,47.757 c 0.517,4.252 2.133,7.718 4.852,10.378 v 0 c 2.72,2.658 6.046,3.992 9.985,3.992 v 0 c 3.939,0 6.949,-1.334 9.019,-3.992 v 0 c 2.073,-2.66 2.852,-6.126 2.335,-10.378 v 0 l -5.798,-47.757 c -0.063,-0.534 0.064,-0.986 0.393,-1.353 v 0 c 0.327,-0.373 0.757,-0.56 1.293,-0.56 v 0 h 18.683 c 0.533,0 1.003,0.187 1.426,0.56 v 0 c 0.417,0.367 0.657,0.819 0.72,1.353 v 0 l 6.358,52.382 c 1.088,8.945 -0.663,16.023 -5.245,21.243 v 0 c -4.583,5.211 -11.134,7.824 -19.649,7.824 v 0 c -8.625,0 -15.493,-3.092 -20.609,-9.264 m -91.471,6.232 c -5.412,-2.027 -9.907,-4.846 -13.487,-8.465 v 0 c -3.579,-3.619 -5.855,-7.666 -6.822,-12.138 v 0 c -0.197,-0.746 0.33,-1.226 1.583,-1.44 v 0 l 19.016,-2.552 c 1.05,-0.107 1.807,0.42 2.269,1.599 v 0 c 0.894,2.127 2.507,3.773 4.83,4.946 v 0 c 2.325,1.173 5.139,1.76 8.438,1.76 v 0 c 4.259,0 7.332,-0.986 9.228,-2.953 v 0 c 1.886,-1.973 2.62,-4.712 2.193,-8.225 v 0 l -0.426,-3.519 c -0.064,-0.526 -0.364,-0.794 -0.898,-0.794 v 0 H 885.85 c -10.645,0 -19.119,-2.266 -25.415,-6.791 v 0 c -6.298,-4.526 -9.948,-10.885 -10.941,-19.083 v 0 c -0.956,-7.878 0.874,-13.837 5.493,-17.883 v 0 c 4.622,-4.053 11.08,-6.072 19.385,-6.072 v 0 c 9.901,0 17.447,2.926 22.626,8.785 v 0 c 0.252,0.32 0.479,0.426 0.679,0.32 v 0 c 0.2,-0.107 0.28,-0.32 0.24,-0.64 v 0 l -0.64,-5.272 c -0.063,-0.534 0.067,-0.986 0.397,-1.353 v 0 c 0.323,-0.373 0.756,-0.56 1.29,-0.56 v 0 h 18.686 c 0.53,0 1.002,0.187 1.423,0.56 v 0 c 0.42,0.367 0.659,0.819 0.723,1.353 v 0 l 6.572,54.141 c 0.62,5.106 -0.336,9.738 -2.866,13.891 v 0 c -2.529,4.153 -6.362,7.432 -11.504,9.824 v 0 c -5.139,2.393 -11.168,3.593 -18.087,3.593 v 0 c -6.388,0 -12.29,-1.012 -17.696,-3.032 m -1.582,-62.361 c -1.824,1.647 -2.557,3.906 -2.21,6.786 v 0 c 0.4,3.292 2.066,5.852 5.002,7.664 v 0 c 2.932,1.807 6.795,2.713 11.588,2.713 v 0 h 11.497 c 0.533,0 0.77,-0.266 0.703,-0.799 v 0 l -0.696,-5.746 c -0.467,-3.832 -2.443,-6.978 -5.936,-9.425 v 0 c -3.492,-2.452 -7.528,-3.672 -12.104,-3.672 v 0 c -3.409,0 -6.022,0.82 -7.844,2.479 m -209.26,56.129 c -0.133,-0.214 -0.3,-0.267 -0.5,-0.161 v 0 c -0.2,0.108 -0.28,0.321 -0.24,0.64 v 0 l 0.68,5.593 c 0.063,0.526 -0.073,0.979 -0.397,1.353 v 0 c -0.326,0.373 -0.757,0.559 -1.289,0.559 v 0 h -18.683 c -0.533,0 -1.01,-0.186 -1.427,-0.559 v 0 c -0.419,-0.374 -0.66,-0.827 -0.723,-1.353 v 0 l -9.501,-78.257 c -0.063,-0.534 0.067,-0.986 0.397,-1.353 v 0 c 0.323,-0.373 0.756,-0.56 1.29,-0.56 v 0 h 18.685 c 0.531,0 1.003,0.187 1.423,0.56 v 0 c 0.413,0.367 0.66,0.819 0.724,1.353 v 0 l 5.799,47.757 c 0.516,4.252 2.133,7.718 4.852,10.378 v 0 c 2.719,2.658 6.045,3.992 9.984,3.992 v 0 c 3.939,0 6.949,-1.334 9.018,-3.992 v 0 c 2.073,-2.66 2.853,-6.126 2.337,-10.378 v 0 l -5.799,-47.757 c -0.064,-0.534 0.066,-0.986 0.393,-1.353 v 0 c 0.327,-0.373 0.756,-0.56 1.294,-0.56 v 0 h 18.682 c 0.533,0 1.003,0.187 1.426,0.56 v 0 c 0.413,0.367 0.656,0.819 0.72,1.353 v 0 l 6.359,52.382 c 1.086,8.945 -0.664,16.023 -5.246,21.243 v 0 c -4.582,5.211 -11.134,7.824 -19.649,7.824 v 0 c -8.625,0 -15.496,-3.092 -20.609,-9.264 m 374.038,2.16 c -6.682,-4.634 -10.501,-10.892 -11.458,-18.77 v 0 c -0.777,-6.385 0.65,-11.284 4.283,-14.691 v 0 c 3.629,-3.405 8.715,-6.278 15.243,-8.624 v 0 c 2.733,-1.173 6.522,-2.393 11.375,-3.673 v 0 c 4.232,-1.067 7.251,-2.079 9.051,-3.032 v 0 c 1.799,-0.961 2.586,-2.393 2.352,-4.313 v 0 c -0.26,-2.133 -1.593,-3.912 -4.005,-5.352 v 0 c -2.41,-1.433 -5.426,-2.153 -9.042,-2.153 v 0 c -3.942,0 -7.114,0.827 -9.521,2.473 v 0 c -2.413,1.652 -3.472,3.646 -3.189,5.992 v 0 l 0.019,0.159 c 0.064,0.527 -0.066,0.981 -0.392,1.36 v 0 c -0.33,0.367 -0.757,0.554 -1.29,0.554 v 0 h -17.726 c -0.534,0 -1.01,-0.187 -1.427,-0.554 v 0 c -0.416,-0.379 -0.659,-0.833 -0.723,-1.36 v 0 l -0.193,-1.599 c -0.557,-4.579 0.41,-8.678 2.899,-12.297 v 0 c 2.487,-3.619 6.268,-6.445 11.348,-8.465 v 0 c 5.079,-2.019 11.184,-3.033 18.32,-3.033 v 0 c 10.537,0 19.188,2.213 25.954,6.625 v 0 c 6.765,4.42 10.624,10.571 11.581,18.45 v 0 c 0.813,6.705 -0.747,11.817 -4.683,15.33 v 0 c -3.943,3.512 -9.554,6.385 -16.84,8.624 v 0 c -1.643,0.528 -3.186,0.98 -4.628,1.36 v 0 c -1.447,0.367 -2.736,0.714 -3.867,1.033 v 0 c -4.969,1.174 -8.481,2.286 -10.534,3.353 v 0 c -2.053,1.066 -2.95,2.667 -2.689,4.793 v 0 c 0.27,2.232 1.6,3.992 3.992,5.272 v 0 c 2.389,1.279 5.342,1.913 8.855,1.913 v 0 c 3.939,0 7.008,-0.794 9.212,-2.393 v 0 c 2.202,-1.599 3.159,-3.566 2.875,-5.906 v 0 c -0.067,-0.54 0.067,-0.986 0.393,-1.359 v 0 c 0.331,-0.373 0.757,-0.561 1.294,-0.561 v 0 h 17.086 c 0.533,0 1.006,0.188 1.423,0.561 v 0 c 0.42,0.373 0.66,0.819 0.726,1.359 v 0 c 0.607,5 -0.262,9.472 -2.602,13.411 v 0 c -2.347,3.939 -5.939,6.998 -10.784,9.185 v 0 c -4.846,2.179 -10.678,3.272 -17.49,3.272 v 0 c -10.115,0 -18.513,-2.312 -25.198,-6.944 m -216.541,5.985 c -0.536,0 -1.01,-0.187 -1.427,-0.56 v 0 c -0.42,-0.374 -0.657,-0.82 -0.723,-1.353 v 0 l -9.518,-78.417 c -0.064,-0.534 0.067,-0.986 0.394,-1.353 v 0 c 0.326,-0.373 0.756,-0.56 1.292,-0.56 v 0 h 18.683 c 0.534,0 1.004,0.187 1.427,0.56 v 0 c 0.413,0.367 0.656,0.819 0.72,1.353 v 0 l 9.517,78.417 c 0.067,0.533 -0.066,0.979 -0.389,1.353 v 0 c -0.33,0.373 -0.76,0.56 -1.294,0.56 v 0 z"
               style="fill:url(#linearGradient46);stroke:none"
               id="path48" />
          </g>
        </g>
      </g>
    </g>
    <g
       id="g50">
      <g
         id="g52"
         clip-path="url(#clipPath56)">
        <g
           id="g58"
           transform="translate(747.267,631.7572)">
          <path
             d="m 0,0 c 0.206,-0.242 0.29,-0.524 0.25,-0.854 l -1.201,-9.873 c -0.04,-0.338 -0.189,-0.62 -0.455,-0.854 -0.262,-0.234 -0.564,-0.346 -0.899,-0.346 h -18.02 c -0.338,0 -0.524,-0.178 -0.564,-0.508 l -6.858,-56.478 c -0.041,-0.338 -0.194,-0.621 -0.456,-0.862 -0.262,-0.234 -0.564,-0.347 -0.898,-0.347 H -40.88 c -0.338,0 -0.608,0.113 -0.814,0.347 -0.205,0.241 -0.29,0.524 -0.245,0.862 l 6.854,56.478 c 0.04,0.33 -0.109,0.508 -0.443,0.508 h -17.521 c -0.334,0 -0.604,0.112 -0.81,0.346 -0.209,0.234 -0.29,0.516 -0.25,0.854 l 1.201,9.873 c 0.041,0.33 0.186,0.612 0.452,0.854 0.266,0.234 0.564,0.347 0.898,0.347 H -0.814 C -0.479,0.347 -0.21,0.234 0,0"
             style="fill:#234fff;fill-opacity:1;fill-rule:nonzero;stroke:none"
             id="path60" />
        </g>
        <g
           id="g62"
           transform="translate(779.2332,612.6814)">
          <path
             d="m 0,0 c 0.504,-0.274 0.641,-0.782 0.419,-1.515 l -3.51,-11.476 c -0.165,-0.806 -0.665,-1.048 -1.495,-0.701 -0.967,0.33 -2.119,0.499 -3.461,0.499 -0.54,0 -1.285,-0.064 -2.24,-0.201 -2.442,-0.202 -4.594,-1.096 -6.464,-2.668 -1.869,-1.579 -2.965,-3.675 -3.284,-6.294 l -3.332,-27.481 c -0.045,-0.339 -0.194,-0.621 -0.456,-0.862 -0.266,-0.234 -0.568,-0.347 -0.902,-0.347 h -11.778 c -0.335,0 -0.605,0.113 -0.81,0.347 -0.21,0.241 -0.295,0.523 -0.254,0.862 l 5.992,49.329 c 0.04,0.331 0.189,0.621 0.455,0.855 0.262,0.233 0.564,0.354 0.899,0.354 h 11.778 c 0.334,0 0.604,-0.121 0.814,-0.354 0.205,-0.234 0.29,-0.524 0.25,-0.855 l -0.468,-3.828 c -0.024,-0.201 0.028,-0.338 0.153,-0.403 0.125,-0.064 0.23,-0.032 0.315,0.105 3.243,4.03 7.176,6.036 11.806,6.036 C -3.155,1.402 -1.298,0.935 0,0"
             style="fill:#234fff;fill-opacity:1;fill-rule:nonzero;stroke:none"
             id="path64" />
        </g>
        <g
           id="g66"
           transform="translate(816.873,613.028)">
          <path
             d="m 0,0 c 0.262,0.234 0.564,0.355 0.903,0.355 h 11.778 c 0.334,0 0.604,-0.121 0.81,-0.355 0.205,-0.234 0.294,-0.524 0.254,-0.854 l -5.992,-49.33 c -0.04,-0.338 -0.194,-0.62 -0.456,-0.862 -0.261,-0.234 -0.564,-0.347 -0.898,-0.347 H -5.379 c -0.339,0 -0.609,0.113 -0.814,0.347 -0.206,0.242 -0.29,0.524 -0.246,0.862 l 0.415,3.417 c 0.024,0.202 -0.032,0.323 -0.161,0.355 -0.133,0.032 -0.274,-0.048 -0.431,-0.25 -3.127,-3.627 -7.507,-5.44 -13.145,-5.44 -5.101,0 -9.115,1.548 -12.024,4.634 -2.917,3.087 -4.033,7.415 -3.361,12.983 l 4.086,33.631 c 0.041,0.33 0.19,0.62 0.456,0.854 0.262,0.234 0.564,0.355 0.898,0.355 h 11.678 c 0.338,0 0.604,-0.121 0.814,-0.355 0.205,-0.234 0.29,-0.524 0.25,-0.854 l -3.655,-30.109 c -0.326,-2.684 0.129,-4.86 1.37,-6.544 1.237,-1.676 3.135,-2.514 5.686,-2.514 2.28,0 4.247,0.693 5.887,2.063 1.64,1.378 2.768,3.175 3.372,5.391 l 3.853,31.713 C -0.411,-0.524 -0.262,-0.234 0,0"
             style="fill:#234fff;fill-opacity:1;fill-rule:nonzero;stroke:none"
             id="path68" />
        </g>
        <g
           id="g70"
           transform="translate(843.9595,562.8442)">
          <path
             d="m 0,0 c -3.203,1.273 -5.589,3.046 -7.156,5.335 -1.572,2.281 -2.18,4.86 -1.83,7.753 l 0.121,1.007 c 0.04,0.331 0.193,0.621 0.459,0.855 0.262,0.233 0.565,0.354 0.895,0.354 H 3.667 c 0.338,0 0.604,-0.121 0.814,-0.354 0.205,-0.234 0.286,-0.524 0.246,-0.855 L 4.715,13.991 c -0.178,-1.475 0.491,-2.733 2.01,-3.772 1.519,-1.048 3.518,-1.564 6,-1.564 2.281,0 4.187,0.452 5.702,1.354 1.519,0.911 2.361,2.039 2.527,3.377 0.145,1.209 -0.347,2.112 -1.483,2.716 -1.133,0.604 -3.039,1.241 -5.71,1.918 -3.055,0.806 -5.444,1.572 -7.169,2.313 -4.118,1.475 -7.317,3.288 -9.606,5.44 -2.289,2.144 -3.191,5.23 -2.704,9.26 0.601,4.964 3.01,8.905 7.225,11.83 4.215,2.918 9.51,4.376 15.884,4.376 4.296,0 7.971,-0.685 11.029,-2.063 3.051,-1.378 5.319,-3.304 6.798,-5.786 1.475,-2.482 2.023,-5.303 1.64,-8.454 -0.04,-0.347 -0.193,-0.629 -0.455,-0.862 C 36.137,33.84 35.839,33.727 35.5,33.727 H 24.733 c -0.338,0 -0.608,0.113 -0.814,0.347 -0.209,0.233 -0.29,0.515 -0.25,0.862 0.178,1.467 -0.423,2.716 -1.813,3.723 -1.386,1.008 -3.328,1.507 -5.81,1.507 -2.209,0 -4.07,-0.403 -5.581,-1.209 -1.507,-0.805 -2.35,-1.91 -2.519,-3.32 -0.161,-1.346 0.403,-2.353 1.701,-3.022 1.293,-0.669 3.509,-1.37 6.636,-2.111 0.714,-0.202 1.528,-0.42 2.442,-0.653 0.911,-0.234 1.882,-0.524 2.914,-0.855 4.593,-1.418 8.131,-3.223 10.617,-5.439 2.479,-2.217 3.466,-5.44 2.954,-9.671 C 34.606,8.921 32.172,5.045 27.909,2.257 23.645,-0.524 18.189,-1.918 11.545,-1.918 7.048,-1.918 3.199,-1.281 0,0"
             style="fill:#234fff;fill-opacity:1;fill-rule:nonzero;stroke:none"
             id="path72" />
        </g>
        <g
           id="g74"
           transform="translate(919.6824,602.3578)">
          <path
             d="m 0,0 c -0.262,-0.234 -0.564,-0.355 -0.899,-0.355 h -9.666 c -0.335,0 -0.52,-0.169 -0.561,-0.499 l -2.591,-21.349 c -0.27,-2.216 -0.016,-3.86 0.758,-4.932 0.778,-1.072 2.172,-1.612 4.187,-1.612 h 3.32 c 0.335,0 0.608,-0.112 0.814,-0.346 0.206,-0.242 0.29,-0.524 0.25,-0.863 l -1.165,-9.558 c -0.088,-0.741 -0.544,-1.176 -1.366,-1.313 -2.832,-0.137 -4.855,-0.202 -6.064,-0.202 -5.573,0 -9.619,0.927 -12.149,2.773 -2.527,1.845 -3.514,5.319 -2.962,10.42 l 3.276,26.982 c 0.04,0.33 -0.109,0.499 -0.443,0.499 h -5.742 c -0.335,0 -0.605,0.121 -0.81,0.355 -0.206,0.234 -0.286,0.524 -0.246,0.854 l 1.088,8.962 c 0.04,0.33 0.189,0.62 0.451,0.854 0.262,0.234 0.564,0.355 0.899,0.355 h 5.742 c 0.334,0 0.524,0.161 0.564,0.507 l 1.455,11.976 c 0.04,0.331 0.189,0.621 0.455,0.854 0.262,0.234 0.564,0.355 0.895,0.355 h 11.282 c 0.331,0 0.605,-0.121 0.81,-0.355 0.206,-0.233 0.29,-0.523 0.25,-0.854 L -9.623,11.532 c -0.04,-0.346 0.105,-0.507 0.44,-0.507 h 9.667 c 0.334,0 0.604,-0.121 0.809,-0.355 0.21,-0.234 0.295,-0.524 0.254,-0.854 L 0.459,0.854 C 0.419,0.524 0.266,0.234 0,0"
             style="fill:#234fff;fill-opacity:1;fill-rule:nonzero;stroke:none"
             id="path76" />
        </g>
        <g
           id="g78"
           transform="translate(941.1194,596.0637)">
          <path
             d="m 0,0 c -0.375,-0.87 -0.737,-1.942 -1.096,-3.224 -0.04,-0.338 0.109,-0.499 0.443,-0.499 h 17.42 c 0.403,0 0.556,0.161 0.463,0.499 -0.1,1.951 -0.153,2.894 -0.161,2.821 C 16.71,1.612 15.84,3.175 14.466,4.279 13.088,5.383 11.295,5.94 9.078,5.94 4.852,5.94 1.825,3.965 0,0 m 30.786,-11.782 c -0.162,-0.798 -0.645,-1.201 -1.451,-1.201 H -1.777 c -0.403,0 -0.556,-0.169 -0.463,-0.508 0.036,-1.346 0.245,-2.683 0.62,-4.029 1.286,-3.756 4.618,-5.634 9.989,-5.634 4.3,0.065 7.902,1.814 10.803,5.239 0.315,0.395 0.641,0.604 0.98,0.604 0.201,0 0.419,-0.137 0.656,-0.411 l 6.379,-7.148 c 0.294,-0.331 0.427,-0.637 0.395,-0.903 -0.016,-0.137 -0.185,-0.403 -0.5,-0.806 -2.55,-2.756 -5.661,-4.884 -9.336,-6.391 -3.675,-1.515 -7.592,-2.264 -11.75,-2.264 -5.774,0 -10.501,1.305 -14.176,3.925 -3.675,2.619 -6.101,6.278 -7.273,10.976 -1.004,3.353 -1.177,7.753 -0.516,13.185 0.447,3.691 1.346,6.947 2.696,9.767 2.123,4.763 5.282,8.559 9.485,11.372 4.203,2.82 8.954,4.23 14.257,4.23 6.709,0 11.863,-1.95 15.449,-5.842 3.59,-3.885 5.424,-9.091 5.508,-15.603 0.089,-2.546 -0.121,-5.399 -0.64,-8.558"
             style="fill:#234fff;fill-opacity:1;fill-rule:nonzero;stroke:none"
             id="path80" />
        </g>
        <g
           id="g82"
           transform="translate(1013.0787,587.5049)">
          <path
             d="m 0,0 c 0.544,4.497 0.23,8.019 -0.935,10.573 -1.225,2.62 -3.316,3.925 -6.27,3.925 -3.155,0 -5.694,-1.305 -7.624,-3.925 -1.998,-2.619 -3.268,-6.173 -3.812,-10.67 -0.491,-4.029 -0.193,-7.39 0.891,-10.074 1.326,-2.885 3.639,-4.327 6.927,-4.327 3.018,0 5.54,1.442 7.571,4.327 C -1.608,-7.68 -0.524,-4.295 0,0 m 5.819,44.252 c 0.266,0.234 0.564,0.347 0.898,0.347 H 18.5 c 0.334,0 0.6,-0.113 0.809,-0.347 0.206,-0.242 0.291,-0.524 0.25,-0.854 l -8.26,-68.059 c -0.045,-0.338 -0.194,-0.62 -0.456,-0.862 -0.265,-0.234 -0.564,-0.347 -0.898,-0.347 H -1.837 c -0.335,0 -0.605,0.113 -0.81,0.347 -0.21,0.242 -0.291,0.524 -0.246,0.862 l 0.403,3.321 c 0.024,0.201 -0.033,0.314 -0.161,0.354 -0.133,0.032 -0.27,-0.024 -0.419,-0.153 -3.272,-3.691 -7.354,-5.536 -12.254,-5.536 -4.699,0 -8.583,1.305 -11.654,3.924 -3.074,2.619 -5.073,6.206 -5.992,10.767 -0.717,3.498 -0.797,7.56 -0.233,12.185 0.576,4.771 1.684,8.93 3.328,12.484 2.063,4.295 4.912,7.704 8.543,10.219 3.622,2.514 7.885,3.78 12.785,3.78 4.836,0 8.39,-1.685 10.671,-5.037 0.108,-0.202 0.229,-0.266 0.374,-0.202 0.145,0.065 0.23,0.202 0.254,0.403 l 2.615,21.55 c 0.041,0.33 0.186,0.612 0.452,0.854"
             style="fill:#234fff;fill-opacity:1;fill-rule:nonzero;stroke:none"
             id="path84" />
        </g>
        <g
           id="g86"
           transform="translate(1091.187,587.4082)">
          <path
             d="m 0,0 c 0.564,4.626 0.193,8.188 -1.116,10.67 -1.294,2.619 -3.518,3.925 -6.673,3.925 -2.954,0 -5.359,-1.306 -7.221,-3.925 -1.789,-2.555 -2.954,-6.076 -3.502,-10.573 -0.544,-4.497 -0.286,-7.882 0.782,-10.171 1.261,-2.885 3.433,-4.327 6.524,-4.327 3.288,0 5.911,1.442 7.874,4.327 C -1.612,-7.519 -0.504,-4.167 0,0 m 14.74,0.298 c -0.564,-4.626 -1.624,-8.687 -3.187,-12.185 -2.104,-4.561 -5.005,-8.148 -8.712,-10.767 -3.707,-2.619 -7.874,-3.925 -12.508,-3.925 -4.9,0 -8.534,1.846 -10.904,5.537 -0.121,0.129 -0.25,0.185 -0.387,0.153 -0.136,-0.04 -0.217,-0.153 -0.241,-0.355 l -0.407,-3.32 c -0.041,-0.338 -0.19,-0.621 -0.452,-0.862 -0.265,-0.234 -0.568,-0.347 -0.902,-0.347 h -11.779 c -0.338,0 -0.604,0.113 -0.809,0.347 -0.21,0.241 -0.295,0.524 -0.25,0.862 l 8.26,68.059 c 0.041,0.33 0.19,0.612 0.46,0.854 0.258,0.234 0.556,0.347 0.894,0.347 h 11.778 c 0.335,0 0.609,-0.113 0.818,-0.347 0.202,-0.242 0.287,-0.524 0.246,-0.854 l -2.615,-21.55 c -0.024,-0.202 0.024,-0.339 0.153,-0.403 0.121,-0.065 0.266,0 0.427,0.201 3.027,3.353 6.951,5.037 11.783,5.037 4.9,0 8.861,-1.265 11.879,-3.779 3.018,-2.515 5.033,-5.924 6.06,-10.219 0.846,-3.49 0.979,-7.648 0.395,-12.484"
             style="fill:#234fff;fill-opacity:1;fill-rule:nonzero;stroke:none"
             id="path88" />
        </g>
        <g
           id="g90"
           transform="translate(1106.6121,541.9551)">
          <path
             d="m 0,0 c -0.105,0.226 -0.137,0.516 -0.097,0.846 l 1.125,9.268 c 0.04,0.339 0.193,0.621 0.459,0.854 0.262,0.234 0.56,0.355 0.894,0.355 2.829,0.064 5.086,0.298 6.782,0.701 1.697,0.403 3.095,1.177 4.207,2.313 1.112,1.144 2.071,2.821 2.877,5.037 0.085,0.137 0.109,0.338 0.073,0.604 L 5.899,70.122 c -0.056,0.129 -0.064,0.298 -0.04,0.5 0.073,0.604 0.475,0.902 1.217,0.902 H 19.66 c 0.737,0 1.169,-0.33 1.29,-1.007 l 4.493,-32.615 c 0.044,-0.202 0.132,-0.306 0.265,-0.306 0.133,0 0.246,0.104 0.339,0.306 l 12.419,32.615 c 0.282,0.677 0.79,1.007 1.531,1.007 h 12.282 c 0.403,0 0.673,-0.121 0.81,-0.346 0.141,-0.242 0.117,-0.589 -0.073,-1.056 L 29.238,17.762 C 26.97,12.862 24.81,9.195 22.767,6.737 20.728,4.296 18.06,2.498 14.764,1.354 11.472,0.21 6.939,-0.363 1.169,-0.363 H 0.459 C 0.258,-0.363 0.109,-0.242 0,0"
             style="fill:#234fff;fill-opacity:1;fill-rule:nonzero;stroke:none"
             id="path92" />
        </g>
      </g>
    </g>
    <g
       id="g94">
      <g
         id="g96">
        <g
           id="g102">
          <g
             id="g104">
            <path
               d="m 687.368,673.385 c -22.769,0 -43.541,-18.507 -46.303,-41.261 v 0 l -8.506,-70.052 c -1.377,-11.35 1.801,-22.047 8.956,-30.12 v 0 c 7.088,-8 17.196,-12.408 28.46,-12.408 v 0 h 285.172 c 2.908,0 5.265,2.357 5.265,5.267 v 0 c 0,2.908 -2.357,5.266 -5.265,5.266 v 0 H 669.975 c -8.208,0 -15.513,3.146 -20.576,8.862 v 0 c -5.127,5.785 -7.39,13.548 -6.381,21.866 v 0 l 8.506,70.053 c 2.141,17.642 18.222,31.995 35.844,31.995 v 0 h 481.289 c 8.351,0 15.787,-3.203 20.939,-9.017 v 0 c 5.217,-5.892 7.525,-13.797 6.496,-22.263 v 0 l -17.478,-143.987 c -0.348,-2.885 1.707,-5.512 4.596,-5.863 v 0 c 0.213,-0.025 0.429,-0.037 0.641,-0.037 v 0 c 2.623,0 4.895,1.961 5.222,4.633 v 0 l 17.479,143.987 c 1.393,11.497 -1.826,22.337 -9.071,30.512 v 0 c -7.182,8.106 -17.417,12.567 -28.824,12.567 v 0 z"
               style="fill:url(#linearGradient112);stroke:none"
               id="path114" />
          </g>
        </g>
      </g>
    </g>
    <g
       id="g116">
      <g
         id="g118">
        <g
           id="g124">
          <g
             id="g126">
            <path
               d="m 1389.319,390.274 c -0.678,0 -1.253,-0.238 -1.726,-0.709 v 0 c -0.477,-0.478 -0.781,-1.052 -0.914,-1.728 v 0 l -3.455,-28.041 c 0,-0.276 -0.101,-0.51 -0.306,-0.712 v 0 c -0.203,-0.204 -0.442,-0.304 -0.71,-0.304 v 0 h -27.027 c -0.678,0 -1.289,-0.24 -1.828,-0.712 v 0 c -0.542,-0.476 -0.812,-1.051 -0.812,-1.728 v 0 l -2.438,-19.71 c -0.138,-0.681 0,-1.255 0.405,-1.728 v 0 c 0.405,-0.476 0.946,-0.71 1.627,-0.71 v 0 h 27.025 c 0.539,0 0.814,-0.341 0.814,-1.016 v 0 l -3.456,-27.433 c 0,-1.625 0.743,-2.438 2.234,-2.438 v 0 h 18.899 c 0.676,0 1.25,0.234 1.727,0.71 v 0 c 0.474,0.473 0.778,1.047 0.916,1.728 v 0 l 3.251,27.433 c 0.268,0.675 0.675,1.016 1.218,1.016 v 0 h 27.026 c 0.676,0 1.25,0.234 1.728,0.71 v 0 c 0.473,0.473 0.777,1.047 0.915,1.728 v 0 l 2.438,19.71 c 0.132,0.677 0,1.252 -0.408,1.728 v 0 c -0.406,0.472 -0.949,0.712 -1.624,0.712 v 0 h -27.026 c -0.68,0 -1.016,0.335 -1.016,1.016 v 0 l 3.454,28.041 c 0.133,0.676 0,1.25 -0.405,1.728 v 0 c -0.408,0.471 -0.952,0.709 -1.628,0.709 v 0 z"
               style="fill:url(#linearGradient132);stroke:none"
               id="path134" />
          </g>
        </g>
      </g>
    </g>
    <g
       id="g136">
      <g
         id="g138">
        <g
           id="g144">
          <g
             id="g146">
            <path
               d="m 282.259,659.888 c -27.525,-11.26 -50.547,-27.398 -69.054,-48.414 v 0 c -18.52,-21.016 -30.528,-45.541 -36.029,-73.559 v 0 l -4.505,-37.529 c -0.503,-2.511 0,-4.633 1.503,-6.382 v 0 c 1.501,-1.758 3.494,-2.626 6.004,-2.626 v 0 h 104.334 c 2.498,0 4.751,0.868 6.755,2.626 v 0 c 1.995,1.749 3.25,3.871 3.753,6.382 v 0 l 2.252,18.014 c 1.993,15.505 8.502,28.017 19.515,37.53 v 0 c 11.001,9.5 25.016,14.261 42.033,14.261 v 0 c 16.513,0 29.393,-4.761 38.657,-14.261 v 0 c 9.254,-9.513 12.877,-21.522 10.884,-36.03 v 0 c -2.51,-21.016 -28.782,-55.297 -78.813,-102.833 v 0 C 296.017,385.038 279.75,369.522 280.759,370.53 v 0 C 228.71,319.491 185.175,278.957 150.154,248.934 v 0 c -4.01,-3.002 -6.006,-6.756 -6.006,-11.26 v 0 l -10.507,-83.316 c -0.504,-2.509 0,-4.632 1.5,-6.379 v 0 c 1.503,-1.76 3.497,-2.628 6.006,-2.628 v 0 h 341.522 c 2.499,0 4.622,0.868 6.382,2.628 v 0 c 1.747,1.747 2.872,3.87 3.377,6.379 v 0 l 11.26,88.572 c 0,6.004 -2.758,9.005 -8.259,9.005 v 0 H 310.033 c -1.501,0 -2.382,0.494 -2.628,1.503 v 0 c -0.258,0.996 0.118,1.994 1.127,3.002 v 0 l 22.517,20.267 c 60.541,53.035 102.327,91.82 125.35,116.343 v 0 c 25.015,26.516 43.781,51.662 56.296,75.435 v 0 c 12.501,23.761 18.764,47.662 18.764,71.682 v 0 c 0,25.519 -6.263,48.661 -18.764,69.431 v 0 C 500.18,630.356 481.92,646.752 457.9,658.76 v 0 c -24.018,12.012 -52.8,18.015 -86.32,18.015 v 0 c -32.029,0 -61.806,-5.63 -89.321,-16.887"
               style="fill:url(#linearGradient154);stroke:none"
               id="path156" />
          </g>
        </g>
      </g>
    </g>
    <g
       id="g158">
      <g
         id="g160"
         clip-path="url(#clipPath164)">
        <g
           id="g166"
           transform="translate(384.5654,678.7767)">
          <path
             d="m 0,0 c -33.838,0 -65.799,-6.057 -94.996,-18.003 -29.56,-12.092 -54.668,-29.716 -74.627,-52.38 -20.206,-22.93 -33.493,-50.042 -39.487,-80.577 l -0.108,-0.547 -0.066,-0.554 -4.45,-37.075 c -1.164,-6.791 0.585,-13.296 4.962,-18.389 4.307,-5.046 10.487,-7.845 17.369,-7.845 h 104.334 c 6.152,0 11.905,2.194 16.638,6.346 4.457,3.907 7.42,8.992 8.564,14.702 l 0.109,0.54 0.068,0.546 2.25,17.997 c 1.525,11.808 6.249,20.988 14.443,28.065 8.272,7.144 18.817,10.617 32.237,10.617 12.402,0 21.537,-3.186 27.928,-9.738 5.972,-6.14 8.126,-13.62 6.765,-23.526 l -0.018,-0.132 -0.015,-0.131 c -0.521,-4.364 -3.631,-14.6 -18.6,-34.133 -12.6,-16.439 -31.325,-36.496 -55.655,-59.612 l -5.316,-5.079 c -38.293,-36.589 -139.81,-133.588 -173.19,-162.269 -7.152,-5.541 -11.215,-13.231 -11.537,-21.805 l -10.358,-82.126 c -1.182,-6.809 0.564,-13.335 4.949,-18.44 4.312,-5.05 10.493,-7.849 17.374,-7.849 h 341.522 c 6.516,0 12.387,2.427 16.978,7.017 3.863,3.863 6.377,8.579 7.472,14.018 l 0.107,0.531 0.068,0.538 11.26,88.571 0.12,0.942 v 0.948 c 0,14.351 -9.341,23.992 -23.245,23.992 H -28.959 c 59.721,52.357 101.669,91.334 124.704,115.871 25.808,27.356 45.543,53.848 58.631,78.712 13.596,25.841 20.489,52.307 20.489,78.663 0,28.146 -7.035,54.106 -20.91,77.158 -13.959,23.155 -34.458,41.603 -60.934,54.84 C 67.02,-6.593 35.722,0 0,0 m 0,-14.987 c 33.52,0 62.301,-6.003 86.319,-18.014 24.02,-12.009 42.281,-28.404 54.795,-49.163 12.502,-20.77 18.764,-43.911 18.764,-69.43 0,-24.02 -6.262,-47.922 -18.764,-71.682 -12.514,-23.774 -31.28,-48.92 -56.295,-75.436 C 61.796,-323.235 20.01,-362.02 -40.532,-415.055 l -22.517,-20.267 c -1.008,-1.008 -1.384,-2.006 -1.127,-3.001 0.246,-1.009 1.127,-1.503 2.628,-1.503 h 185.397 c 5.5,0 8.258,-3.002 8.258,-9.006 l -11.259,-88.571 c -0.506,-2.51 -1.631,-4.632 -3.378,-6.379 -1.76,-1.761 -3.883,-2.629 -6.381,-2.629 h -341.522 c -2.51,0 -4.503,0.868 -6.006,2.629 -1.501,1.747 -2.004,3.869 -1.501,6.379 l 10.508,83.315 c 0,4.505 1.996,8.258 6.006,11.26 35.02,30.023 145.863,136.104 179.394,168.134 50.031,47.535 76.303,81.817 78.813,102.833 1.993,14.507 -1.631,26.516 -10.884,36.029 -9.265,9.5 -22.144,14.261 -38.657,14.261 -17.017,0 -31.033,-4.761 -42.033,-14.261 -11.013,-9.513 -17.522,-22.025 -19.515,-37.53 l -2.253,-18.014 c -0.503,-2.51 -1.758,-4.633 -3.753,-6.382 -2.004,-1.758 -4.256,-2.626 -6.755,-2.626 h -104.334 c -2.509,0 -4.502,0.868 -6.003,2.626 -1.503,1.749 -2.006,3.872 -1.503,6.382 l 4.505,37.529 c 5.5,28.018 17.509,52.543 36.029,73.559 18.506,21.017 41.529,37.155 69.054,48.414 27.514,11.258 57.291,16.887 89.321,16.887"
             style="fill:#234fff;fill-opacity:1;fill-rule:nonzero;stroke:none"
             id="path168" />
        </g>
      </g>
    </g>
  </g>
</svg>
